<svg xmlns="http://www.w3.org/2000/svg" width="1200" height="675" viewBox="0 0 1200 675">
  <rect width="1200" height="675" fill="#ffffff"/>
  <text x="80" y="90" font-family="Arial, 'PingFang SC', 'Microsoft YaHei', sans-serif" font-size="42" font-weight="700" fill="#111827">主流笔记和文档软件适配</text>
  <text x="80" y="132" font-family="Arial, 'PingFang SC', 'Microsoft YaHei', sans-serif" font-size="24" fill="#475569">同一套学习审稿流程，不同软件输出不同模板。</text>
  <g font-family="Arial, 'PingFang SC', 'Microsoft YaHei', sans-serif" font-size="24" font-weight="700">
    <rect x="80" y="210" width="230" height="90" rx="16" fill="#eef2ff"/>
    <text x="126" y="264" fill="#3730a3">Obsidian</text>
    <rect x="350" y="210" width="230" height="90" rx="16" fill="#ecfeff"/>
    <text x="414" y="264" fill="#155e75">Notion</text>
    <rect x="620" y="210" width="230" height="90" rx="16" fill="#f0fdf4"/>
    <text x="684" y="264" fill="#166534">FlowUs</text>
    <rect x="890" y="210" width="230" height="90" rx="16" fill="#fff7ed"/>
    <text x="930" y="264" fill="#9a3412">飞书文档</text>
    <rect x="80" y="350" width="230" height="90" rx="16" fill="#fdf2f8"/>
    <text x="118" y="404" fill="#9d174d">腾讯文档</text>
    <rect x="350" y="350" width="230" height="90" rx="16" fill="#fefce8"/>
    <text x="430" y="404" fill="#854d0e">语雀</text>
    <rect x="620" y="350" width="230" height="90" rx="16" fill="#f1f5f9"/>
    <text x="684" y="404" fill="#334155">Word/WPS</text>
    <rect x="890" y="350" width="230" height="90" rx="16" fill="#f5f3ff"/>
    <text x="944" y="404" fill="#5b21b6">Markdown</text>
  </g>
  <rect x="160" y="520" width="880" height="78" rx="14" fill="#0f172a"/>
  <text x="205" y="568" font-family="Arial, 'PingFang SC', 'Microsoft YaHei', sans-serif" font-size="26" font-weight="700" fill="#ffffff">支持 callout、Review block、审稿表格和评论式输出。</text>
</svg>
